# xmcd CD database file
# Copyright (C) 1995-1998 Ti Kan
#
# Track frame offsets:
#	182
#	18672
#	33655
#	48075
#	66962
#	80732
#	94222
#	110795
#	126557
#	143405
#	160695
#	177177
#	191542
#	207057
#
# Disc length: 2972 seconds
#
# Revision: 3
# Processed by: cddbd v1.4b41PL1 Copyright (c) Steve Scherf et al.
# Submitted via: CDex 1.40Beta0
#
DISCID=c40b9a0e
DTITLE=Diamond Rio - Greatest Hits
DYEAR=1997
DGENRE=Country
TTITLE0=How Your Love Makes Me Feel
TTITLE1=Meet In The Middle
TTITLE2=Mirror Mirror
TTITLE3=Mama Don't Forget To Pray For Me
TTITLE4=Norma Jean Riley
TTITLE5=In A Week Or Two
TTITLE6=Love A Little Stronger
TTITLE7=Night Is Fallin' In My Heart
TTITLE8=Bubba Hyde
TTITLE9=Walkin' Away
TTITLE10=It's All In Your Head
TTITLE11=Holdin'
TTITLE12=She Misses Him On Sunday The Most
TTITLE13=Imagine That
EXTD=YEAR: 1997 ID3G:   2
EXTT0=
EXTT1=
EXTT2=
EXTT3=
EXTT4=
EXTT5=
EXTT6=
EXTT7=
EXTT8=
EXTT9=
EXTT10=
EXTT11=
EXTT12=
EXTT13=
PLAYORDER=
